<!DOCTYPE svg PUBLIC "-//W3C//DTD SVG 1.1//EN" "http://www.w3.org/Graphics/SVG/1.1/DTD/svg11.dtd" [
	<!ENTITY ns_flows "http://ns.adobe.com/Flows/1.0/">
]><svg xmlns="http://www.w3.org/2000/svg" width="100" height="100" viewBox="-1.5 -1.5 100 100"><path fill="#21221F" d="M48.5 97C21.757 97 0 75.243 0 48.5S21.757 0 48.5 0 97 21.757 97 48.5 75.243 97 48.5 97zm0-92.812C24.066 4.188 4.188 24.066 4.188 48.5c0 24.434 19.878 44.313 44.313 44.313 24.435 0 44.314-19.88 44.314-44.313 0-24.434-19.88-44.312-44.314-44.312zm18.84 32.407c.223.22.52.34.816.34.638 0 1.156-.52 1.156-1.158V25.37c0-.638-.515-1.156-1.156-1.156H57.75c-.47 0-.892.28-1.07.718-.18.43-.08.925.252 1.257L67.34 36.594zM27.685 48.777v26.315h16.188v-16.19h9.252v16.19h16.187V48.777L48.5 27.963 27.684 48.777zm48.25.095l-.02-.038-26.597-26.596c-.442-.44-1.193-.44-1.635 0L21.088 48.834c-.417.42-.48 1.107-.025 1.6.524.523 1.23.444 1.644.045l.016-.01L48.5 24.692 74.274 50.47l.016.01c.437.428 1.168.428 1.605 0l.015-.01c.423-.42.48-1.12.025-1.598z"/></svg>