<!DOCTYPE svg PUBLIC "-//W3C//DTD SVG 1.1//EN" "http://www.w3.org/Graphics/SVG/1.1/DTD/svg11.dtd" [
	<!ENTITY ns_flows "http://ns.adobe.com/Flows/1.0/">
]><svg xmlns="http://www.w3.org/2000/svg" width="30" height="30" viewBox="-0.348 -2.279 30 30"><path fill="#231F20" d="M29.144 7.083c-.46-2.088-1.842-3.644-4-4.5-1.122-.445-4.427-1.008-6.36.504-.196-.268-.382-.538-.615-.778C16.744.82 14.827 0 12.77 0 10.834 0 9 .737 7.6 2.076c-1.444 1.38-2.26 3.236-2.304 5.234-.04 1.728.54 3.364 1.583 4.706l-6.638 6.35c-.313.3-.323.8-.024 1.113.155.16.36.242.568.242.195 0 .39-.07.543-.218l6.64-6.35c.423.36.876.665 1.36.923 1.083 1.194 1.4 1.884 1.575 2.662.032.146.123.628.13.785.3 7.02 2.697 7.78 3.474 7.848.18.045.356.068.53.068.344 0 .667-.09.964-.27 1.29-.794 1.66-3.1 1.99-5.137.114-.7.22-1.362.342-1.73.054-.17.106-.304.153-.405.054.105.098.208.11.277.044.295.075.674.11 1.102.176 2.178.47 5.807 3.066 6.09.313.07.782.025 1.263-.264 1.19-.724 2.065-2.733 2.59-5.968l.077-.502c.18-1.224.427-2.9 1.402-3.93 1.447-1.52 2.638-4.866 2.034-7.62zM8.69 3.213c1.103-1.058 2.55-1.64 4.078-1.64 1.625 0 3.14.648 4.267 1.82 1.086 1.138 1.67 2.632 1.635 4.203-.032 1.58-.68 3.05-1.82 4.14-1.104 1.058-2.55 1.638-4.08 1.638-1.628 0-3.142-.65-4.266-1.82-1.088-1.14-1.67-2.634-1.634-4.212.035-1.573.68-3.04 1.82-4.13zm17.28 10.403c-1.322 1.393-1.622 3.434-1.82 4.786l-.07.48c-.765 4.684-1.988 4.935-1.93 4.96-.057-.02-.116-.03-.177-.035-1.33-.114-1.56-2.958-1.698-4.655-.038-.47-.07-.882-.117-1.206-.066-.443-.585-1.773-1.6-1.858-.733-.063-1.328.52-1.72 1.734-.158.48-.267 1.168-.396 1.966-.217 1.355-.585 3.63-1.26 4.044-.043.023-.11.073-.307.01-.085-.026-.14-.03-.205-.03-.502-.067-1.85-1.33-2.063-6.35-.008-.198-.123-.86-.167-1.064-.124-.55-.314-1.045-.586-1.538.303.036.604.09.916.09 1.935 0 3.77-.735 5.166-2.07 1.444-1.383 2.266-3.244 2.308-5.245.02-1.11-.217-2.178-.654-3.166 1.137-1.093 3.822-.882 4.975-.42 1.673.662 2.695 1.795 3.044 3.372.518 2.372-.62 5.124-1.64 6.194z"/></svg>