<!DOCTYPE svg PUBLIC "-//W3C//DTD SVG 1.1//EN" "http://www.w3.org/Graphics/SVG/1.1/DTD/svg11.dtd" [
	<!ENTITY ns_flows "http://ns.adobe.com/Flows/1.0/">
]><svg xmlns="http://www.w3.org/2000/svg" width="305" height="345" viewBox="-2.5 -1.5 305 345"><path fill-rule="evenodd" clip-rule="evenodd" fill="#FFF" d="M110.528 229.317H126.1l2.452-.545 1.634-1.363.545-2.454.137-.41v-81.643l-1.498-1.2-2.044-1.498-2.043-1.362-2.18-1.227-2.178-1.226-2.315-1.09-.68-.298v38.176l-.137 3.817-.135 3.68-.136 3.54-.136 3.544-.273 3.54-.27 3.407-.274 3.27-.274 3.27-.408 3.135-.41 2.997-.543 2.997-.545 2.862-.544 2.86-.544 2.725-.68 2.726-.682 2.59-.68 2.588-.68 2.453-.052.137zm31.778-74.563v69.794l.41 2.588 1.497 1.5 2.315.68h16.205v5.995h-52.428v-5.358l-.545 1.545-.817 2.315-.953 2.18-.817 2.044-1.09 2.043-.952 2.043-1.09 1.908-.953 1.772-1.225 1.77-1.09 1.637-1.226 1.497-1.225 1.5-1.362 1.362-1.225 1.362-1.362 1.225-1.497 1.227-1.362 1.09-1.497 1.09-1.634.817-1.5.955-1.634.817-1.634.682-1.77.544-1.634.546-1.77.544-1.907.272-1.77.41-1.905.135-2.043.136-1.907.138H64.82l-2.996-.273-2.86-.408-2.724-.546-2.587-.68-2.45-.817-2.316-.954-2.043-1.09-1.906-1.364-1.77-1.363-1.636-1.635-.408-.272-1.907-2.315-1.634-2.18-1.498-2.316-1.09-2.452-.953-2.317-.68-2.453-.41-2.453-.136-2.454v-3.814l.41-3.27.408-2.86.68-2.59.954-2.18 1.09-1.908 1.225-1.635 1.498-1.227 1.772-.818 1.77-.545 2.18-.273h.407l2.995.137 2.86.272 2.723.544 2.45.818 2.18 1.09 2.043 1.227 1.226.954-1.36 2.588-1.09 2.59-1.09 2.452-.68 2.59-.545 2.586-.408 2.453-.136 2.452v.818l.136 3.135.272 2.725.68 2.588.818 2.18 1.225 1.907 1.362 1.636 1.497 1.363 1.907.953 2.18.817 2.314.41 2.315.136 2.315-.138 2.042-.272 2.043-.545 1.77-.818 1.634-.954 1.634-1.226 1.363-1.5 1.225-1.635 1.226-1.772.953-2.18.817-2.315.68-2.453.682-2.725.41-2.998.27-3.135.137-3.405V130.887l-1.77.187-2.452.408-2.45.545-2.314.544-2.315.683-2.314.817-2.315.953-2.178 1.09-2.315 1.227-2.042 1.227-2.178 1.362-2.043 1.498-2.042 1.635-2.043 1.635-1.907 1.908-1.907 1.907-1.907 2.043-1.772 2.18-1.906 2.316-1.634 2.317-.408.408-1.226 1.907-1.36 2.044-1.227 1.906-1.09 2.044-1.226 2.044-.952 2.18-1.09 2.043-.952 2.316-.954 2.182-.953 2.315-.818 2.317-.817 2.452-.817 2.45-.68 2.454-.682 2.453-.68 2.588L32 196.2l-.544 2.59-.41 2.725-.544 2.725-.408 2.86-.272 2.862-.272 2.86-.272 2.863-.273 2.998-.136 2.997-.137 3.135-.136 3.134v7.084l.136 3.133v3.134l.272 3 .136 2.997.274 2.998.272 2.86.408 2.86.408 2.863.41 2.725.408 2.725.544 2.726.545 2.588.68 2.59.68 2.588.682 2.453.682 2.453.817 2.315.818 2.454.953 2.315.954 2.18.954 2.317 1.09 2.18.952 2.044 1.226 2.045 1.09 2.044 1.225 2.043 1.227 1.907 1.362 1.908.27.545 1.772 2.315 1.77 2.317 1.907 2.18 1.77 2.042 1.907 2.045 2.042 1.77 1.906 1.773 2.042 1.635 2.042 1.5 2.18 1.36 2.18 1.364 2.178 1.226 2.18.954 2.313.954 2.316.953 2.315.683 2.316.68 2.45.546 2.452.408 2.588.272 2.45.137 2.588.136h.544l2.588-.136 2.452-.137 2.586-.272 2.452-.41 2.45-.408 2.316-.68 2.315-.68 2.315-.82 2.315-.953 2.18-1.09 2.314-1.09 2.18-1.226 2.042-1.5 2.042-1.36 2.043-1.637 2.042-1.77 2.042-1.773 1.907-1.907 1.905-2.044 1.906-2.182 1.772-2.18 1.77-2.453.41-.544 1.36-1.907 1.227-1.908 1.225-2.043 1.226-2.043 1.09-2.045 1.09-2.18 1.09-2.044.952-2.315.954-2.18.952-2.316.817-2.318.817-2.45.68-2.455.82-2.452.68-2.453.544-2.59.68-2.588.408-2.726.546-2.725.408-2.724.408-2.862.408-2.86.272-2.863.273-2.86.27-3 .137-2.997.136-3.134v-3.134l.137-3.134v-.817l-.137-3.134v-3.134l-.136-3.135-.136-2.997-.27-2.998-.137-2.998-.41-2.86-.27-2.863-.41-2.86-.407-2.724-.545-2.725-.407-2.724-.68-2.59-.546-2.588-.682-2.59-.68-2.452-.818-2.453-.816-2.315-.816-2.453-.816-2.316-.954-2.182-.952-2.315-1.09-2.044-1.09-2.182-1.088-2.043-1.225-2.043-1.09-2.044-1.362-1.908-1.225-1.907-.41-.545-1.77-2.316-.547-.708zM117.93 29.294v94.583l.545.114 2.588.546 2.45.68 2.588.683 2.452.68 2.315.772v-93.97l-.545-2.316-1.77-1.363-2.45-.408h-8.172zm-90.967 283.41l-1.634-1.77-1.635-1.908-1.498-1.772-1.362-2.043-1.498-1.906-1.362-2.044-1.225-2.044-1.362-2.044-1.09-2.042-1.226-2.18-1.09-2.18-1.088-2.318-.953-2.316-.953-2.317-.953-2.316-.953-2.453-.816-2.45-.682-2.454-.68-2.59-.68-2.452-.682-2.725-.545-2.59-.545-2.725-.408-2.725-.41-2.725-.407-2.862-.273-2.86-.272-2.862-.273-2.996-.136-2.862-.135-3.134L0 235.04V228.773l.136-2.998.136-2.998.136-2.998.273-3 .273-2.86.273-2.86.408-2.863.41-2.724.407-2.726.546-2.725.545-2.59.682-2.588.68-2.588.68-2.59.683-2.452.817-2.452.953-2.453.817-2.318 1.09-2.316.953-2.316 1.09-2.18 1.088-2.317 1.09-2.043 1.225-2.18 1.362-2.045 1.225-2.043 1.362-2.044 1.498-1.908 1.362-1.908 1.498-1.907 1.634-1.908 1.633-1.77 1.77-1.908 1.77-1.91 1.907-1.77 1.907-1.772 2.042-1.635 1.905-1.635 2.043-1.5 2.18-1.498 2.04-1.363 2.18-1.363 2.18-1.362 2.178-1.226 2.314-1.09 2.315-1.09 2.315-.954 2.315-.954 2.45-.954 2.452-.817 2.452-.682 2.45-.68 2.587-.547 2.588-.544 2.724-.545 2.586-.41 2.724-.41 2.723-.272 2.86-.136 1.36-.07V10.083l-.544-2.315-1.635-1.363-2.45-.41H69.858V0h68.634v5.995H122.56l-2.45.545-1.635 1.362-.545 2.453V23.3h41.808l108.398 160.236V34.063l-.544-2.59-1.362-1.5-2.452-.68h-16.204V23.3H300v5.996h-15.796l-2.587.545-1.634 1.36-.41 2.18v201.93h-10.756L142.307 47.553v84.887l.272.135 2.177 1.227 2.18 1.362 2.178 1.363 2.18 1.362 2.04 1.5 2.044 1.634 1.906 1.635 2.043 1.634 1.905 1.77 1.907 1.91 1.77 1.77 1.226 1.364 1.634 1.77 1.498 1.91 1.498 1.906 1.497 1.908 1.363 1.908 1.362 2.044 1.36 2.043 1.226 2.044 1.227 2.182 1.09 2.18 1.09 2.18 1.087 2.18.954 2.317.953 2.315.954 2.453.817 2.316.817 2.452.816 2.59.68 2.452.683 2.588.544 2.59.544 2.724.547 2.725.408 2.726.41 2.725.408 2.86.272 2.863.272 2.86.272 3 .135 2.996.136 2.998.138 3.134v2.86l-.137 3.135v3l-.135 3.133-.136 2.862-.273 2.997-.272 2.862-.272 2.86-.41 2.862-.408 2.725-.408 2.726-.546 2.725-.543 2.727-.682 2.588-.68 2.59-.68 2.452-.682 2.59-.817 2.452-.954 2.315-.816 2.453-.953 2.316-1.09 2.317-.952 2.18-1.09 2.18-1.224 2.182-1.227 2.18-1.226 2.043-1.225 2.043-1.363 2.044-1.498 1.908-1.363 1.907-1.498 1.908-1.636 1.908-1.498 1.635-1.77 1.907-1.907 1.908-1.907 1.77-1.907 1.773-1.907 1.635-2.044 1.636-2.043 1.5-2.18 1.498-2.04 1.5-2.18 1.226-2.18 1.36-2.177 1.228-2.315 1.09-2.313 1.09-2.315.954-2.315.954-2.452.954-2.45.818-2.453.68-2.586.683-2.45.682-2.588.545-2.724.41-2.587.408-2.724.408-2.724.273-2.723.136-2.86.136-2.86.132H93.69l-2.86-.137-2.86-.136-2.723-.273-2.723-.272-2.724-.41-2.587-.408-2.723-.545-2.588-.545-2.45-.545-2.588-.817-2.452-.68-2.45-.82-2.315-.953-2.45-.954-2.316-.953-2.178-1.227-2.315-1.09-2.18-1.227-2.178-1.362-2.18-1.363-2.043-1.362-2.042-1.5-2.043-1.498-2.043-1.635-1.907-1.77-1.907-1.773-1.906-1.77-1.77-1.91-1.227-1.362z"/></svg>