<!DOCTYPE svg PUBLIC "-//W3C//DTD SVG 1.1//EN" "http://www.w3.org/Graphics/SVG/1.1/DTD/svg11.dtd" [
	<!ENTITY ns_flows "http://ns.adobe.com/Flows/1.0/">
]><svg xmlns="http://www.w3.org/2000/svg" width="100" height="100" viewBox="-1.5 -1.5 100 100"><path fill="#21221F" d="M48.5 97C21.757 97 0 75.243 0 48.5S21.757 0 48.5 0 97 21.757 97 48.5 75.243 97 48.5 97zm0-92.812C24.066 4.188 4.188 24.066 4.188 48.5c0 24.434 19.878 44.313 44.313 44.313 24.436 0 44.314-19.88 44.314-44.313 0-24.434-19.878-44.312-44.314-44.312z"/><path fill="#21221F" d="M69.312 61.04l-6.657-12.175c-.504-.915-1.34-1.493-2.227-1.648-.347-.115-.708-.178-1.094-.178h-10.11l-.205-3.1h8.166c1.08 0 1.953-.978 1.953-2.172 0-1.198-.875-2.174-1.954-2.174h-8.45l-.243-3.844c-.137-2.1-1.883-3.7-3.957-3.7-.086 0-.173 0-.26.008l-.822.05c-2.186.143-3.845 2.033-3.705 4.22l.913 13.924c.14 2.098 1.884 3.702 3.957 3.702.048 0 .097 0 .146-.002h.116c.077.014.154.014.23.014H58.96l5.362 9.8c.59 1.08 1.67 1.712 2.74 1.712.437 0 .86-.104 1.257-.322 1.376-.76 1.813-2.598.992-4.116zM43.92 30.972c2.542 0 4.607-2.064 4.607-4.608s-2.064-4.607-4.608-4.607c-2.546 0-4.608 2.063-4.608 4.607s2.062 4.608 4.607 4.608z"/><path fill="#21221F" d="M60.994 63.528s-1.086-.846-1.928.44c-.846 1.287-2.09 4.54-6.67 6.87-2.814 1.446-6.55 2.73-11.733 1.167-5.184-1.566-11.612-7.515-10.77-15.87.564-4.42 2.05-7.917 6.71-11.533.966-.883.925-1.485.483-2.007-.44-.522-1.125-.645-1.767-.24-.646.4-1.047.722-1.047.722s-7.674 5.464-6.95 15.39 8.517 15.628 15.27 16.593c6.75.963 14.222-1.82 18.4-9.186.403-.9.845-1.542 0-2.346z"/></svg>