<!DOCTYPE svg PUBLIC "-//W3C//DTD SVG 1.1//EN" "http://www.w3.org/Graphics/SVG/1.1/DTD/svg11.dtd" [
	<!ENTITY ns_flows "http://ns.adobe.com/Flows/1.0/">
]><svg xmlns="http://www.w3.org/2000/svg" width="25" height="25" viewBox="-0.152 -3.7 25 25"><path fill="#231F20" d="M22.785 0H1.91C.864 0 0 .864 0 1.91v13.78c0 1.046.864 1.91 1.91 1.91h20.875c1.046 0 1.91-.864 1.91-1.91V1.91C24.74.864 23.875 0 22.785 0zm-7.14 9.324l7.958-6.14v12.324l-7.958-6.184zM1.955 1.137h20.83c.364 0 .682.273.772.59l-10.55 8.188c-.41.318-1.092.318-1.456 0L1.138 1.82c.09-.365.41-.683.82-.683zm-.818 14.37V3.276L9.005 9.37l-7.868 6.138zm.82 1.047c-.092 0-.183 0-.23-.045l8.233-6.414.91.728c.41.318.91.456 1.41.456.5 0 1.046-.138 1.41-.456l1-.773 8.322 6.46c-.09.045-.137.045-.228.045H1.956z"/></svg>