<!DOCTYPE svg PUBLIC "-//W3C//DTD SVG 1.1//EN" "http://www.w3.org/Graphics/SVG/1.1/DTD/svg11.dtd" [
	<!ENTITY ns_flows "http://ns.adobe.com/Flows/1.0/">
]><svg xmlns="http://www.w3.org/2000/svg" width="100" height="100" viewBox="-1.5 -1.5 100 100"><path fill="#21221F" d="M48.5 97C21.757 97 0 75.243 0 48.5S21.757 0 48.5 0 97 21.757 97 48.5 75.243 97 48.5 97zm0-92.812C24.066 4.188 4.188 24.066 4.188 48.5c0 24.434 19.878 44.313 44.313 44.313 24.435 0 44.314-19.88 44.314-44.313 0-24.434-19.88-44.312-44.314-44.312z"/><path fill="#21221F" d="M74.37 28.777H22.63c-1.144 0-2.07.927-2.07 2.07v35.306c0 1.143.927 2.07 2.07 2.07h51.74c1.144 0 2.07-.928 2.07-2.07V30.848c0-1.144-.926-2.07-2.07-2.07zM24.7 34.77l14.072 9.6-14.07 16.232V34.77zm23.8 11.223L29.34 32.92h38.32L48.5 45.992zm-6.282.728l5.115 3.49c.353.24.76.362 1.168.362s.816-.12 1.168-.36l5.115-3.49 15.052 17.36H27.168l15.05-17.36zm16.01-2.35l14.07-9.6V60.6L58.23 44.37z"/></svg>