<!DOCTYPE svg PUBLIC "-//W3C//DTD SVG 1.1//EN" "http://www.w3.org/Graphics/SVG/1.1/DTD/svg11.dtd" [
	<!ENTITY ns_flows "http://ns.adobe.com/Flows/1.0/">
]><svg xmlns="http://www.w3.org/2000/svg" width="100" height="115" viewBox="-0.806 -1.451 100 115"><path fill-rule="evenodd" clip-rule="evenodd" d="M36.25 75.166h5.106l.804-.18.536-.447.18-.806.044-.132V46.84l-.492-.394-.67-.49-.67-.448-.713-.402-.714-.403-.76-.356-.222-.098V56.76l-.045 1.25-.044 1.206-.046 1.16-.044 1.162-.09 1.162-.088 1.115-.09 1.072-.088 1.07-.134 1.027-.134.98-.178.984-.18.94-.177.938-.178.893-.223.895-.224.85-.223.848-.224.803-.02.05zm10.42-24.44V73.6l.135.847.492.49.76.226h5.313v1.962H36.176v-1.755l-.178.507-.27.76-.312.714-.27.668-.356.67-.314.67-.357.627-.314.58-.402.58-.357.535-.402.49-.4.492-.448.448-.402.445-.446.4-.492.402-.447.36-.49.356-.536.267-.49.313-.538.267-.535.225-.58.18-.536.178-.58.18-.624.087-.58.135-.626.046-.67.044-.626.045h-1.34l-.982-.09-.938-.134-.893-.18-.848-.223-.803-.267-.76-.313-.67-.356-.625-.447-.582-.445-.536-.536-.134-.09-.625-.76-.536-.713-.492-.76-.357-.805-.313-.76-.223-.804-.134-.802-.044-.805v-1.25l.134-1.072.134-.937.224-.85.312-.714.357-.627.402-.536.49-.4.58-.268.582-.182.714-.088h.134l.983.044.94.088.892.18.804.27.715.355.67.4.402.314-.447.85-.357.85-.357.805-.222.847-.178.85-.134.804-.046.804v.27l.044 1.027.09.893.222.85.268.714.402.624.447.536.49.445.626.312.713.27.76.132.76.046.76-.046.668-.088.67-.18.582-.267.536-.314.536-.4.446-.493.402-.535.402-.58.313-.717.268-.758.223-.803.223-.894.135-.983.09-1.028.044-1.115V42.902l-.582.06-.804.135-.804.18-.76.178-.76.223-.758.268-.76.313-.713.356-.76.403-.67.4-.715.447-.67.49-.67.537-.67.536-.625.625-.625.625-.626.67-.582.714-.625.76-.536.758-.134.134-.402.626-.446.67-.402.624-.357.67-.4.67-.314.713-.356.67-.313.758-.312.715-.313.76-.268.76-.27.803-.266.805-.223.804-.223.805-.223.848-.178.894-.18.85-.132.893-.18.893-.13.936-.09.938-.09.938-.088.938-.09.983-.044.982-.045 1.028-.044 1.027v2.322l.043 1.026v1.027l.09.98.045.984.09.983.088.938.134.938.134.938.134.893.134.894.18.894.178.85.223.85.224.848.223.805.223.803.268.76.27.804.312.76.313.715.313.758.358.715.312.67.402.67.357.67.402.67.4.624.447.626.09.18.58.757.582.76.624.716.58.67.627.67.67.58.625.58.67.536.67.492.713.445.715.446.714.4.715.314.76.313.758.312.76.225.758.223.804.18.804.134.85.09.803.044.847.046h.178l.85-.045.803-.043.848-.09.803-.135.804-.135.76-.223.758-.223.76-.268.758-.312.714-.36.76-.355.714-.4.67-.493.67-.445.67-.536.67-.58.67-.58.624-.627.625-.668.625-.715.58-.714.582-.806.133-.178.446-.625.403-.626.402-.67.4-.67.358-.67.357-.713.357-.67.313-.76.313-.713.312-.76.27-.76.267-.805.225-.804.267-.805.223-.802.18-.85.222-.85.135-.892.18-.894.136-.893.132-.94.135-.938.09-.938.09-.937.087-.983.047-.983.044-1.024v-1.03l.044-1.025v-.268l-.044-1.025v-1.03l-.044-1.025-.047-.983-.088-.984-.045-.98-.135-.938-.09-.94-.133-.937-.135-.892-.18-.894-.133-.893-.224-.85-.18-.848-.224-.85-.224-.802-.267-.805-.268-.76-.268-.804-.27-.758-.312-.715-.31-.758-.36-.67-.356-.717-.357-.67-.403-.67-.357-.668-.446-.626-.402-.626-.134-.18-.58-.758-.177-.23zM38.677 9.6v31.002l.18.037.847.18.804.224.85.224.803.223.76.254V10.942l-.18-.76-.58-.446-.804-.134h-2.68zM8.843 102.496l-.536-.58-.536-.624-.49-.582-.447-.67-.492-.625-.445-.668-.402-.67-.447-.67-.357-.67-.403-.716-.357-.714-.357-.76-.313-.758-.313-.76-.313-.76-.313-.803-.267-.805-.223-.803-.224-.85-.223-.805-.223-.893-.18-.848-.178-.894-.132-.89-.134-.896-.134-.938-.09-.937-.088-.94-.09-.98-.045-.937-.046-1.03L0 77.04V74.988l.044-.983.045-.983.043-.98.09-.984.088-.938.09-.94.134-.936.134-.894.134-.893.18-.894.178-.85.223-.847.223-.85.224-.85.223-.803.268-.805.314-.803.268-.76.357-.76.312-.76.357-.713.356-.76.357-.67.402-.713.447-.67.402-.67.446-.67.492-.626.447-.626.49-.625.536-.625.536-.58.58-.626.58-.625.626-.58.625-.582.67-.536.624-.537.67-.49.714-.492.67-.446.716-.446.714-.447.715-.402.76-.356.76-.357.758-.313.76-.313.804-.313.804-.27.804-.222.806-.22.85-.18.848-.18.894-.177.848-.135.893-.133.893-.09.938-.044.446-.022V3.304l-.18-.76-.535-.446-.804-.133h-5.18V0h22.51v1.965h-5.225l-.804.18-.535.445-.18.804v4.243H52.39l35.55 52.52V11.166l-.18-.85-.446-.49-.805-.224h-5.315V7.638h17.195v1.965h-5.18l-.85.18-.535.445-.135.715v66.186H88.16L46.67 15.586V43.41l.088.045.715.4.714.448.715.446.714.446.67.492.668.536.627.536.67.537.625.58.626.625.58.58.404.447.534.58.49.625.493.625.492.626.448.625.445.67.447.67.4.67.402.715.357.713.358.716.357.714.313.76.313.758.32.804.268.76.27.804.266.85.224.802.225.85.18.85.176.892.18.894.132.893.135.894.134.938.09.937.09.94.09.98.045.98.044.984.043 1.026v.938L63.2 77.04v.982l-.045 1.03-.044.937-.09.98-.09.94-.09.936-.133.938-.135.896-.133.893-.18.894-.178.893-.226.847-.223.85-.223.805-.223.847-.27.804-.312.76-.267.804-.313.76-.357.76-.313.714-.357.715-.4.715-.404.714-.4.67-.402.67-.445.67-.492.625-.447.626-.492.626-.535.626-.49.534-.58.626-.625.626-.626.58-.625.58-.626.536-.672.537-.67.49-.714.49-.67.493-.714.4-.715.446-.715.403-.76.356-.757.357-.76.313-.76.313-.803.31-.803.27-.805.223-.848.223-.804.223-.848.18-.893.133-.85.134-.893.135-.894.088-.893.045-.938.046-.938.045H30.73l-.937-.044-.938-.045-.894-.09-.892-.087-.894-.135-.848-.135-.893-.178-.85-.18-.803-.178-.848-.268-.805-.223-.804-.268-.76-.313-.803-.314-.76-.313-.714-.4-.76-.358-.714-.4-.714-.448-.715-.445-.67-.447-.67-.492-.67-.49-.67-.535-.624-.582-.626-.58-.625-.58-.582-.626-.405-.454z"/></svg>