<!DOCTYPE svg PUBLIC "-//W3C//DTD SVG 1.1//EN" "http://www.w3.org/Graphics/SVG/1.1/DTD/svg11.dtd" [
	<!ENTITY ns_flows "http://ns.adobe.com/Flows/1.0/">
]><svg xmlns="http://www.w3.org/2000/svg" width="100" height="100" viewBox="-1.5 -1.5 100 100"><path fill="#21221F" d="M48.5 97C21.757 97 0 75.243 0 48.5S21.757 0 48.5 0 97 21.757 97 48.5 75.243 97 48.5 97zm0-92.812C24.066 4.188 4.188 24.066 4.188 48.5c0 24.434 19.878 44.313 44.313 44.313 24.436 0 44.314-19.88 44.314-44.313 0-24.434-19.878-44.312-44.314-44.312z"/><path fill="#21221F" d="M31.67 21.82H52.1c12.958 0 17.228 8.08 17.228 16.008 0 7.317-4.727 15.932-17.227 15.932H38.304v21.42H31.67V21.82zm31.027 16.008c0-4.193-2.135-9.833-10.14-9.833H38.302v19.59h14.253c7.548 0 10.14-5.184 10.14-9.757z"/></svg>