<!DOCTYPE svg PUBLIC "-//W3C//DTD SVG 1.1//EN" "http://www.w3.org/Graphics/SVG/1.1/DTD/svg11.dtd" [
	<!ENTITY ns_flows "http://ns.adobe.com/Flows/1.0/">
]><svg xmlns="http://www.w3.org/2000/svg" width="100" height="100" viewBox="-1.5 -1.5 100 100"><path fill="#21221F" d="M48.5 97C21.757 97 0 75.243 0 48.5S21.757 0 48.5 0 97 21.757 97 48.5 75.243 97 48.5 97zm0-92.812C24.066 4.188 4.188 24.066 4.188 48.5c0 24.434 19.878 44.313 44.313 44.313 24.435 0 44.314-19.88 44.314-44.313 0-24.434-19.88-44.312-44.314-44.312zM67.42 75.34c-12.055 0-23.852-4.883-32.364-13.395-8.62-8.627-13.5-20.566-13.4-32.773.167-.708.55-1.814.865-2.125l3.968-3.967c.848-.85 2.378-1.422 3.81-1.422.5 0 .955.068 1.353.2l.836.28c1.62.542 3.432 2.458 3.877 4.098l1.994 7.318c.444 1.64-.2 4.117-1.38 5.296l-3.056 3.056.152.56c2.684 9.937 10.528 17.783 20.47 20.474l.56.15 3.054-3.056c.9-.9 2.598-1.527 4.13-1.527.428 0 .82.048 1.17.142l7.313 2c1.672.458 3.55 2.232 4.1 3.872l.278.842c.524 1.58-.043 3.987-1.213 5.152l-3.965 3.966c-.343.343-1.665.747-2.226.855l-.323.003z"/></svg>