<!DOCTYPE svg PUBLIC "-//W3C//DTD SVG 1.1//EN" "http://www.w3.org/Graphics/SVG/1.1/DTD/svg11.dtd" [
	<!ENTITY ns_flows "http://ns.adobe.com/Flows/1.0/">
]><svg xmlns="http://www.w3.org/2000/svg" width="100" height="100" viewBox="-1.5 -1.5 100 100"><path fill="#21221F" d="M48.5 0C21.757 0 0 21.757 0 48.5S21.757 97 48.5 97 97 75.243 97 48.5 75.243 0 48.5 0zm0 92.148c-24.07 0-43.65-19.582-43.65-43.65 0-24.07 19.58-43.65 43.65-43.65S92.15 24.43 92.15 48.5c0 24.068-19.58 43.65-43.65 43.65z"/><path fill="#21221F" d="M17.65 46.613c0-.892-.725-1.617-1.618-1.617H7.41c-.894 0-1.618.725-1.618 1.617s.724 1.617 1.617 1.617h8.622c.893 0 1.617-.725 1.617-1.617zM77.128 46.613c0 .892.725 1.617 1.616 1.617h8.624c.892 0 1.616-.725 1.616-1.617s-.725-1.617-1.616-1.617h-8.624c-.89 0-1.616.725-1.616 1.617zM47.49 18.76c.893 0 1.617-.724 1.617-1.617V8.52c0-.893-.724-1.617-1.617-1.617s-1.617.724-1.617 1.617v8.623c0 .893.724 1.617 1.617 1.617zM47.49 78.238c-.893 0-1.617.725-1.617 1.616v8.623c0 .896.724 1.617 1.617 1.617s1.617-.722 1.617-1.617v-8.623c0-.89-.725-1.616-1.617-1.616z"/><circle fill="#21221F" cx="16.032" cy="29.502" r="1.887"/><circle fill="#21221F" cx="80.631" cy="29.502" r="1.887"/><circle fill="#21221F" cx="28.292" cy="14.718" r="1.887"/><circle fill="#21221F" cx="66.688" cy="14.718" r="1.887"/><circle fill="#21221F" cx="16.201" cy="67.494" r="1.887"/><circle fill="#21221F" cx="80.799" cy="67.494" r="1.887"/><circle fill="#21221F" cx="28.46" cy="82.281" r="1.887"/><circle fill="#21221F" cx="66.854" cy="82.281" r="1.887"/><path fill="#21221F" d="M42.39 19.48c-.29-.844-1.21-1.293-2.054-1.003-.844.29-1.293 1.208-1.004 2.055l9.73 28.31L27.568 69.81c-.64.622-.652 1.647-.028 2.284.317.325.736.487 1.157.487.407 0 .815-.152 1.13-.458l22.228-21.677c.448-.44.603-1.093.4-1.684L42.39 19.48z"/></svg>