<!DOCTYPE svg PUBLIC "-//W3C//DTD SVG 1.1//EN" "http://www.w3.org/Graphics/SVG/1.1/DTD/svg11.dtd" [
	<!ENTITY ns_flows "http://ns.adobe.com/Flows/1.0/">
]><svg xmlns="http://www.w3.org/2000/svg" width="100" height="100" viewBox="-1.5 -1.5 100 100"><path fill="#78489C" d="M28.975 97c-.656 0-1.27-.24-1.73-.678-.445-.425-.69-.982-.69-1.573 0-.592.245-1.15.69-1.576l11.95-11.365c.454-.43 1.084-.678 1.73-.678H57.94l.054-.006c24.583-2.634 34.16-11.618 34.16-32.05V36.032c0-9.644-2.705-16.854-8.272-22.043C77.13 7.693 65.965 4.5 50.695 4.5c-.707 0-1.425.008-2.148.022-36.394.682-43.706 12.56-43.706 31.51v13.045c0 12.447 6.957 26.75 19.848 28.74.666.102 1.24.445 1.615.968.342.474.476 1.043.38 1.605-.185 1.084-1.208 1.9-2.38 1.9-.134 0-.27-.01-.404-.032C8.206 79.838 0 63.734 0 49.078V36.03C0 23.59 3.438 15.113 10.817 9.35 18.547 3.32 30.505.358 48.45.02 49.19.008 49.917 0 50.64 0 67.28 0 79.617 3.636 87.31 10.807 93.74 16.8 97 25.287 97 36.03v13.047c0 11.667-3.18 20.218-9.72 26.142-6.274 5.676-15.465 8.982-28.925 10.402-.104.012-.188.016-.272.016h-16.14L30.706 96.32c-.46.44-1.073.68-1.73.68z"/><path fill="#78489C" d="M74.854 42.35c-1.334 0-2.42-1.01-2.42-2.25 0-5.558-2.27-10.78-6.4-14.702-4.11-3.91-9.575-6.065-15.385-6.065-1.337 0-2.424-1.01-2.424-2.25 0-1.242 1.087-2.253 2.423-2.253 7.125 0 13.818 2.635 18.847 7.42 5.02 4.77 7.782 11.11 7.782 17.85 0 1.242-1.087 2.25-2.422 2.25h-.004z"/><path fill="#78489C" d="M62.755 42.35c-1.336 0-2.424-1.01-2.424-2.25 0-5.104-4.342-9.257-9.68-9.257-1.337 0-2.424-1.01-2.424-2.252 0-1.24 1.087-2.25 2.423-2.25 8.007 0 14.522 6.174 14.522 13.76 0 1.24-1.084 2.25-2.417 2.25zM59.578 71.266c-1.547 0-3.16-.32-4.798-.95-7.988-3.098-14.98-7.43-20.78-12.877-5.736-5.52-10.3-12.17-13.556-19.762-1.278-2.995-1.315-5.906-.104-8.417 1.255-2.603 3.726-4.56 7.148-5.656.768-.245 1.533-.37 2.278-.37.77 0 1.538.135 2.28.397 1.108.388 3.068 1.686 6.136 5.673 2.373 3.086 3.73 5.64 3.817 7.192.168 3.163-2.28 4.756-3.46 5.522-.408.266-.887.406-1.383.406-.813 0-1.566-.374-2.017-1-.347-.483-.48-1.065-.37-1.638.11-.595.465-1.113.996-1.46.715-.46.968-.694 1.094-.83l.418-.446-.194-.58c-.697-2.07-4.927-7.513-6.655-8.564l-.14-.084-.16-.038c-.118-.027-.242-.042-.368-.042-.216 0-.447.04-.706.125-1.476.472-3.422 1.417-4.297 3.234-.84 1.742-.364 3.633.184 4.914C27.96 43.05 32.172 49.2 37.46 54.29c5.337 5.01 11.787 9 19.182 11.87 1.03.395 2.017.596 2.935.596.764 0 1.476-.142 2.114-.42 1.905-.827 2.903-2.69 3.404-4.108.146-.404.177-.753.092-1.09l-.043-.176-.1-.148c-1.105-1.642-6.814-5.654-8.98-6.315l-.53-.163-.424.355c-.15.123-.4.365-.89 1.05-.447.622-1.2.996-2.013.996-.496 0-.975-.142-1.384-.408-.533-.346-.888-.863-.998-1.458-.107-.572.025-1.152.372-1.634.774-1.077 2.384-3.315 5.55-3.315.11 0 .22.002.333.008 1.66.087 4.373 1.382 7.63 3.65 4.192 2.912 5.554 4.772 5.96 5.82.53 1.354.54 2.776.027 4.23-1.147 3.24-3.205 5.584-5.95 6.78-1.302.568-2.702.856-4.17.856z"/></svg>