<!DOCTYPE svg PUBLIC "-//W3C//DTD SVG 1.1//EN" "http://www.w3.org/Graphics/SVG/1.1/DTD/svg11.dtd" [
	<!ENTITY ns_flows "http://ns.adobe.com/Flows/1.0/">
]><svg xmlns="http://www.w3.org/2000/svg" xmlns:xlink="http://www.w3.org/1999/xlink" width="176" height="11" viewBox="0 0 176 11"><defs><path id="a" d="M0 0h175.447v10.272H0z"/></defs><clipPath id="b"><use xlink:href="#a" overflow="visible"/></clipPath><path clip-path="url(#b)" fill="#8A8A8A" d="M3.325 8.217c.253 0 .506-.197.62-.506l1.98-5.27c.104-.28.03-.504-.186-.504h-.885c-.254 0-.518.2-.62.504l-1.25 3.57-1.248-3.57c-.104-.303-.365-.503-.618-.503H.233c-.218 0-.292.223-.188.504l1.98 5.273c.114.307.368.506.62.506l.68-.003z"/><defs><path id="c" d="M0 0h175.447v10.272H0z"/></defs><clipPath id="d"><use xlink:href="#c" overflow="visible"/></clipPath><path clip-path="url(#d)" fill="#8A8A8A" d="M7.292.037c-.16 0-.28.152-.28.35v5.438c0 .2.12.354.28.354h1.026c.16 0 .28-.153.28-.355V.388c0-.2-.122-.35-.28-.35H7.292z"/><defs><path id="e" d="M0 0h175.447v10.272H0z"/></defs><clipPath id="f"><use xlink:href="#e" overflow="visible"/></clipPath><path clip-path="url(#f)" fill="#8A8A8A" d="M8.617 7.514c0-.41-.198-.654-.526-.654h-.574c-.33 0-.525.244-.525.654v.2c0 .41.196.657.526.657h.573c.327 0 .525-.245.525-.657l.002-.2z"/><defs><path id="g" d="M0 0h175.447v10.272H0z"/></defs><clipPath id="h"><use xlink:href="#g" overflow="visible"/></clipPath><path clip-path="url(#h)" fill="#8A8A8A" d="M14.04 2.17c0-.198-.122-.35-.283-.35-1.033 0-1.51.35-2.037.834V2.29c0-.2-.122-.353-.282-.353h-1.024c-.16 0-.28.153-.28.353v5.578c0 .198.12.35.28.35h1.024c.16 0 .282-.15.282-.35V4.204c.338-.505.713-.845 1.183-.845.244 0 .49.034.705.034h.15c.16 0 .28-.152.28-.352v-.87z"/><defs><path id="i" d="M0 0h175.447v10.272H0z"/></defs><clipPath id="j"><use xlink:href="#i" overflow="visible"/></clipPath><path clip-path="url(#j)" fill="#8A8A8A" d="M18.266 8.217c.16-.035.28-.176.28-.352v-.61c0-.2-.12-.353-.28-.353h-.17c-.207 0-.383.07-.63.07-.475 0-.805-.423-.805-1.222V3.652h1.28c.157 0 .28-.153.28-.353v-.682c0-.2-.123-.353-.28-.353h-1.28V.352c0-.2-.12-.352-.28-.352h-1.026c-.157 0-.28.152-.28.352v5.402c0 1.758.658 2.58 1.973 2.58.418 0 .936-.046 1.22-.117"/><g><defs><path id="k" d="M0 0h175.447v10.272H0z"/></defs><clipPath id="l"><use xlink:href="#k" overflow="visible"/></clipPath><path clip-path="url(#l)" fill="#8A8A8A" d="M21.167 2.29c0-.2-.122-.354-.282-.354H19.86c-.157 0-.28.153-.28.354v3.287c0 1.948.864 2.76 2.086 2.76.705 0 1.173-.377 1.605-.834v.363c0 .198.124.352.282.352h1.024c.16 0 .284-.15.284-.352V2.29c0-.2-.123-.354-.284-.354h-1.024c-.158 0-.28.153-.28.354v3.84c-.34.423-.772.82-1.232.82-.516 0-.873-.397-.873-1.374V2.29z"/></g><g><defs><path id="m" d="M0 0h175.447v10.272H0z"/></defs><clipPath id="n"><use xlink:href="#m" overflow="visible"/></clipPath><path clip-path="url(#n)" fill="#8A8A8A" d="M31.13 6.482c0-2.397-3.464-1.834-3.464-2.807 0-.33.263-.553.91-.553.404 0 .75.14.91.388.125.188.293.305.527.305h.687c.16 0 .282-.152.282-.352 0-1.22-.977-1.643-2.516-1.643-1.325 0-2.385.528-2.385 1.855 0 2.37 3.464 1.83 3.464 2.807 0 .326-.262.55-1.05.55-.405 0-.75-.14-.912-.386-.123-.188-.292-.307-.526-.307h-.685c-.157 0-.282.15-.282.353 0 1.22.978 1.642 2.518 1.642 1.464 0 2.525-.526 2.525-1.853"/></g><g><defs><path id="o" d="M0 0h175.447v10.272H0z"/></defs><clipPath id="p"><use xlink:href="#o" overflow="visible"/></clipPath><path clip-path="url(#p)" fill="#8A8A8A" d="M41.104 7.866V.352c0-.2-.12-.352-.28-.352H39.8c-.162 0-.282.152-.282.352v1.762c-.385-.152-.76-.294-1.325-.294-1.465 0-2.46 1.103-2.46 3.264 0 2.148.988 3.252 2.32 3.252.666 0 1.183-.27 1.606-.646v.176c0 .197.12.352.28.352h.884c.16 0 .28-.154.28-.352M39.52 6.434c-.33.26-.752.52-1.09.52-.752 0-1.063-.577-1.063-1.87 0-1.303.31-1.878 1.156-1.878.237 0 .61.082.996.235v2.994z"/></g><g><defs><path id="q" d="M0 0h175.447v10.272H0z"/></defs><clipPath id="r"><use xlink:href="#q" overflow="visible"/></clipPath><path clip-path="url(#r)" fill="#8A8A8A" d="M43.933 8.217c.16 0 .28-.152.28-.353V2.43c0-.2-.12-.35-.28-.35H42.91c-.16 0-.283.15-.283.35v5.436c0 .198.123.352.283.352h1.023z"/></g><g><defs><path id="s" d="M0 0h175.447v10.272H0z"/></defs><clipPath id="t"><use xlink:href="#s" overflow="visible"/></clipPath><path clip-path="url(#t)" fill="#8A8A8A" d="M49.82 3.676c.198-.248.328-.448.328-.835v-.55c0-.2-.123-.353-.283-.353h-4.178c-.16 0-.282.152-.282.353v.68c0 .2.122.353.282.353h2.46L45.733 6.48c-.197.248-.33.45-.33.834v.552c0 .198.123.352.283.352h4.217c.16 0 .28-.15.28-.352v-.68c0-.2-.122-.354-.28-.354H47.32l2.5-3.156z"/></g><g><defs><path id="u" d="M0 0h175.447v10.272H0z"/></defs><clipPath id="v"><use xlink:href="#u" overflow="visible"/></clipPath><path clip-path="url(#v)" fill="#8A8A8A" d="M56.357 7.866V4.32c0-1.796-1.063-2.5-2.414-2.5-1.522 0-2.5.422-2.5 1.644 0 .2.124.353.283.353h.686c.235 0 .405-.118.526-.306.16-.246.507-.386.893-.386.63 0 .94.282.94 1.198h-1.52c-1.23 0-2.17.67-2.17 2 0 1.323.94 2.016 2.17 2.016.723 0 1.24-.27 1.663-.644v.175c0 .197.12.352.28.352h.884c.157-.005.28-.158.28-.356M54.77 6.518c-.328.256-.798.515-1.36.515-.488 0-.743-.306-.743-.714 0-.39.255-.695.696-.695h1.408v.893z"/></g><g><defs><path id="w" d="M0 0h175.447v10.272H0z"/></defs><clipPath id="x"><use xlink:href="#w" overflow="visible"/></clipPath><path clip-path="url(#x)" fill="#8A8A8A" d="M59.542 2.43c0-.198-.122-.353-.282-.353h-1.024c-.157 0-.28.154-.28.353v5.142c0 1.033-.33 1.34-.612 1.34-.18 0-.3-.083-.468-.083h-.14c-.16 0-.283.15-.283.352v.62c0 .18.122.308.282.354.28.08.75.115 1.033.115 1.118 0 1.774-.818 1.774-2.697V2.43z"/></g><g><defs><path id="y" d="M0 0h175.447v10.272H0z"/></defs><clipPath id="z"><use xlink:href="#y" overflow="visible"/></clipPath><path clip-path="url(#z)" fill="#8A8A8A" d="M64.752 7.866c0 .198.123.352.28.352h1.024c.16 0 .282-.15.282-.352v-3.29c0-1.947-.863-2.757-2.085-2.757-.705 0-1.173.375-1.604.834V2.29c0-.202-.125-.353-.284-.353h-1.023c-.16 0-.283.15-.283.353v5.576c0 .198.122.352.283.352h1.023c.16 0 .283-.15.283-.352v-3.84c.335-.42.767-.82 1.226-.82.518 0 .876.398.876 1.37v3.29z"/></g><g><defs><path id="A" d="M0 0h175.447v10.272H0z"/></defs><clipPath id="B"><use xlink:href="#A" overflow="visible"/></clipPath><path clip-path="url(#B)" fill="#8A8A8A" d="M75.066 2.564c.025-.025.054-.037.09-.037h.64c.032 0 .06.012.086.037.024.023.035.052.035.086v5.603c0 .033-.01.062-.035.084-.025.024-.054.037-.087.037h-.64c-.036 0-.064-.013-.09-.037-.024-.022-.035-.05-.035-.084V2.65c0-.034.012-.063.036-.086m4.584 5.688c0 .033-.016.063-.04.084-.024.025-.053.037-.084.037h-.64c-.035 0-.064-.012-.087-.037-.027-.02-.04-.05-.04-.084V2.65c0-.034.013-.063.04-.086.022-.025.052-.037.085-.037h.624c.01 0 .03.005.053.02.023.014.038.025.043.037l2.67 4.05V2.65c0-.034.012-.063.038-.086.024-.025.054-.037.086-.037h.643c.032 0 .06.012.084.037.025.023.037.052.037.086v5.603c0 .033-.01.062-.037.084-.023.024-.052.037-.084.037h-.627c-.01 0-.028-.006-.054-.02-.024-.017-.04-.025-.045-.038L79.65 4.258v3.994zm8.298.086c-.023.023-.05.037-.085.037h-.642c-.032 0-.06-.014-.083-.037-.024-.023-.036-.053-.036-.086v-4.93h-1.486c-.035 0-.062-.012-.09-.037-.023-.025-.034-.052-.034-.087V2.65c0-.034.01-.063.035-.086.027-.025.054-.037.09-.037h3.858c.034 0 .063.012.088.037.024.023.036.052.036.086v.548c0 .036-.012.063-.035.087-.022.024-.053.037-.087.037h-1.486v4.93c0 .034-.01.062-.04.086m4.012-5.774c.022-.025.054-.037.084-.037h3.492c.03 0 .062.012.086.037.022.023.035.052.035.086v.548c0 .036-.013.063-.035.087-.024.025-.056.037-.086.037h-2.73v1.71h2.314c.03 0 .063.013.086.038.023.024.035.052.035.085v.543c0 .03-.01.063-.034.084-.026.026-.055.038-.086.038h-2.313v1.76h2.73c.03 0 .06.01.085.035.022.023.035.054.035.087v.548c0 .035-.013.063-.035.086-.024.023-.056.04-.086.04h-3.492c-.03 0-.062-.017-.085-.04-.026-.02-.04-.05-.04-.086v-5.6c0-.034.014-.063.04-.086m7.12 3.35v2.34c0 .032-.013.062-.037.085-.024.023-.052.036-.087.036h-.64c-.032 0-.064-.013-.087-.037-.026-.023-.038-.054-.038-.087V2.65c0-.034.012-.063.037-.086.02-.025.054-.037.085-.037h2.145c.28 0 .53.042.753.127.22.084.413.202.57.353.16.15.28.332.364.542.086.21.13.438.13.686 0 .393-.106.72-.312.977-.21.256-.493.45-.854.577l1.26 2.405c.024.05.028.09.008.127-.022.035-.063.054-.124.054h-.756c-.012 0-.03-.008-.057-.022-.026-.02-.042-.03-.052-.043l-1.2-2.395h-1.104l-.003-.002zm0-.76h1.314c.297 0 .537-.08.72-.24.186-.158.274-.38.274-.672 0-.29-.09-.515-.273-.677-.184-.16-.424-.242-.72-.242H99.08v1.83zm6.696 3.098c0 .033-.012.063-.035.084-.023.025-.054.037-.087.037h-.643c-.03 0-.063-.012-.082-.037-.027-.02-.04-.05-.04-.084V2.65c0-.034.013-.063.04-.086.02-.025.05-.037.082-.037h.627c.012 0 .027.005.053.02.024.014.04.026.047.038l2.67 4.052V2.65c0-.034.01-.063.037-.086.024-.025.053-.037.084-.037h.644c.03 0 .063.012.086.037.024.023.037.052.037.086v5.603c0 .033-.013.062-.037.084-.022.024-.056.037-.086.037h-.626c-.012 0-.027-.006-.053-.02-.02-.015-.04-.025-.047-.038l-2.67-4.06v3.996zm6.396-5.688c.02-.025.053-.037.085-.037h3.493c.03 0 .063.012.086.037.023.023.038.052.038.086v.548c0 .036-.015.063-.038.087-.023.024-.057.037-.086.037h-2.73v1.71h2.312c.03 0 .06.013.085.038.022.024.037.052.037.085v.543c0 .03-.015.063-.037.084-.024.026-.056.038-.085.038h-2.31v1.76h2.728c.03 0 .063.01.086.035.023.023.038.054.038.087v.548c0 .035-.015.063-.038.086s-.057.04-.086.04h-3.493c-.032 0-.063-.017-.085-.04-.023-.02-.035-.05-.035-.086v-5.6c0-.034.012-.063.035-.086m8.174 5.774c-.02.023-.055.037-.084.037h-.642c-.032 0-.063-.014-.088-.037-.023-.023-.037-.053-.037-.086v-4.93h-1.487c-.03 0-.06-.012-.084-.037-.02-.025-.037-.052-.037-.087V2.65c0-.034.016-.063.037-.086.023-.025.055-.037.084-.037h3.862c.032 0 .063.012.086.037.02.023.037.052.037.086v.548c0 .036-.017.063-.037.087-.022.025-.054.037-.086.037h-1.483v4.93c0 .034-.015.062-.04.086m8.146-2.425v2.34c0 .033-.01.063-.035.086-.023.023-.055.036-.088.036h-.64c-.032 0-.064-.013-.09-.037-.02-.023-.034-.054-.034-.087V2.65c0-.034.014-.063.035-.086.025-.025.058-.037.09-.037h2.144c.28 0 .53.042.752.127.223.084.412.202.57.353.16.15.28.332.363.542.087.21.13.438.13.686 0 .393-.106.72-.313.977-.21.256-.495.45-.854.577l1.26 2.405c.023.05.03.09.008.127-.022.035-.062.054-.122.054h-.758c-.014 0-.03-.008-.06-.022-.024-.02-.044-.03-.05-.043l-1.195-2.395-1.112-.002zm0-.76h1.314c.297 0 .535-.078.72-.238.183-.16.273-.382.273-.673 0-.29-.09-.515-.274-.677-.184-.16-.424-.242-.72-.242h-1.313v1.83zm5.244 2.61c.037-.08.094-.157.166-.228.074-.072.15-.132.236-.173.08-.04.142-.043.18-.004.093.076.192.142.305.19.11.052.256.08.442.08.33 0 .588-.1.776-.298s.284-.486.284-.87V2.65c0-.034.012-.063.036-.086.022-.025.05-.037.086-.037h.64c.032 0 .062.012.085.037.025.023.037.052.037.086v3.877c0 .304-.05.57-.148.81-.102.24-.24.438-.422.597-.178.16-.383.278-.615.36-.237.082-.49.125-.76.125-.28 0-.52-.04-.73-.11-.21-.068-.406-.188-.593-.358-.046-.046-.048-.11-.007-.188m6.074-5.2c.025-.025.054-.037.09-.037h3.49c.03 0 .062.012.085.037.024.023.037.052.037.086v.548c0 .036-.013.063-.037.087-.023.025-.054.037-.086.037h-2.73v1.71h2.31c.033 0 .064.013.087.038.023.024.04.052.04.085v.543c0 .03-.017.063-.04.084-.022.026-.054.038-.086.038h-2.31v1.76h2.73c.03 0 .062.01.085.035.024.023.037.054.037.087v.548c0 .035-.013.063-.037.086-.023.023-.054.04-.086.04h-3.49c-.036 0-.064-.017-.09-.04-.022-.02-.034-.05-.034-.086v-5.6c0-.034.012-.063.035-.086m7.523-.622c-.022-.01-.04-.02-.05-.033l-.855-1.077c-.043-.05-.055-.094-.03-.135.02-.04.062-.063.12-.063h.387c.013 0 .027.005.05.017.02.012.04.02.042.025l.682.754.68-.753.042-.025c.02-.01.04-.017.052-.017h.386c.06 0 .104.02.125.063s.01.086-.035.135l-.853 1.076c-.015.01-.028.02-.052.032-.02.012-.037.017-.05.017h-.59c-.013 0-.027-.006-.052-.018m-1.72 5.615c.042-.078.1-.154.173-.23.074-.073.15-.132.232-.173.082-.043.145-.043.184-.006.2.184.418.31.646.375.23.067.485.104.766.104.385 0 .68-.08.892-.233.21-.158.313-.377.313-.66 0-.22-.044-.387-.134-.502-.094-.115-.21-.2-.354-.26-.146-.057-.313-.098-.504-.117-.188-.02-.382-.05-.582-.083-.2-.033-.394-.082-.582-.147-.188-.066-.36-.17-.513-.313-.286-.268-.43-.642-.43-1.118 0-.257.046-.49.138-.7.09-.206.22-.386.386-.54.168-.154.37-.272.616-.355.244-.083.517-.125.816-.125.36 0 .678.046.95.138.27.088.524.236.767.438.045.04.05.098.015.174-.037.076-.09.15-.155.222-.07.07-.145.127-.225.168-.08.04-.14.044-.186.01-.175-.14-.36-.24-.554-.295-.192-.056-.405-.082-.638-.082-.348 0-.61.084-.793.258-.184.172-.274.39-.274.653 0 .195.048.347.136.456.09.105.21.188.36.245.15.06.32.103.51.133.19.03.383.06.573.094.196.032.385.08.57.14.19.06.35.152.484.28.16.143.278.313.357.52.077.2.118.43.118.68 0 .27-.05.51-.154.724-.104.216-.25.397-.438.544-.186.146-.408.258-.664.332-.258.073-.54.11-.847.11-.418 0-.783-.05-1.098-.147-.314-.102-.61-.274-.885-.524-.034-.046-.038-.11.005-.19m6.63-4.992c.022-.025.053-.037.087-.037h3.487c.033 0 .063.012.088.037.02.023.037.052.037.086v.548c0 .036-.016.063-.037.087-.025.025-.055.037-.088.037h-2.73v1.71h2.312c.03 0 .062.013.083.038.025.024.04.052.04.085v.543c0 .03-.015.063-.04.084-.02.026-.053.038-.084.038h-2.312v1.76h2.73c.032 0 .062.01.087.035.02.023.037.054.037.087v.548c0 .035-.016.063-.037.086-.025.023-.055.04-.088.04h-3.488c-.035 0-.064-.017-.09-.04-.023-.02-.036-.05-.036-.086v-5.6c0-.034.01-.063.037-.086m7.122 5.688c0 .033-.014.063-.04.084-.022.025-.054.037-.083.037h-.644c-.033 0-.062-.012-.086-.037-.023-.02-.037-.05-.037-.084V2.65c0-.034.014-.063.037-.086.024-.025.053-.037.086-.037h.623c.013 0 .028.005.054.02.022.014.04.026.045.038l2.67 4.052V2.65c0-.034.012-.063.036-.086.024-.025.055-.037.086-.037h.642c.032 0 .062.012.088.037.022.023.038.052.038.086v5.603c0 .033-.016.062-.038.084-.026.024-.056.037-.088.037h-.624c-.01 0-.03-.006-.055-.02-.02-.017-.04-.025-.043-.038l-2.67-4.06v3.996zm5.79-.488c.042-.08.095-.158.17-.23.073-.07.15-.13.233-.172s.143-.043.182-.004c.094.076.193.142.304.19.11.052.26.08.445.08.332 0 .586-.1.777-.298.188-.197.28-.486.28-.87V2.65c0-.034.015-.063.037-.086.023-.025.052-.037.084-.037h.64c.035 0 .064.012.087.037.027.023.04.052.04.086v3.877c0 .304-.05.57-.154.81-.098.24-.235.438-.416.597-.178.16-.383.278-.62.36-.233.082-.484.125-.755.125-.277 0-.523-.04-.73-.11-.21-.068-.406-.188-.594-.358-.044-.046-.044-.11-.007-.188m6.686-.562l-.38 1.092c-.008.02-.02.033-.043.056-.026.02-.05.026-.07.026h-.686c-.047 0-.083-.02-.103-.05-.02-.032-.02-.07-.01-.114l2.057-5.604c.014-.015.026-.033.053-.052.023-.02.045-.027.063-.027h.55c.018 0 .038.007.063.026s.043.037.056.052l2.054 5.604c.016.045.016.082-.01.115-.02.028-.057.05-.105.05h-.685c-.02 0-.047-.01-.068-.027-.02-.02-.04-.04-.047-.056l-.377-1.092h-2.314zm2.063-.757l-.887-2.597-.916 2.597h1.803z"/></g></svg>