<!DOCTYPE svg PUBLIC "-//W3C//DTD SVG 1.1//EN" "http://www.w3.org/Graphics/SVG/1.1/DTD/svg11.dtd" [
	<!ENTITY ns_flows "http://ns.adobe.com/Flows/1.0/">
]><svg xmlns="http://www.w3.org/2000/svg" width="100" height="100" viewBox="-1.5 -1.5 100 100"><path fill="#53B848" d="M8.28 72.576l-.297-.488C3.487 64.706 1.11 56.218 1.11 47.546 1.112 21.33 22.62 0 49.055 0 75.49.007 97 21.337 97 47.55c0 26.216-21.51 47.544-47.952 47.544-8.103 0-16.116-2.044-23.174-5.91l-.46-.252L0 97l8.28-24.424zm17.844 10.538c6.848 4.36 14.76 6.662 22.922 6.662 23.473 0 42.568-18.942 42.568-42.228.003-11.26-4.43-21.86-12.483-29.844C71.08 9.722 60.397 5.326 49.047 5.326c-23.47 0-42.562 18.945-42.562 42.232 0 8.736 2.674 17.104 7.737 24.242L8.487 88.72l17.638-5.606zm36.235-13.76c-1.93 0-5.532-1.054-11.335-3.317-7.042-2.752-14.054-8.858-19.744-17.193-.157-.23-.265-.387-.32-.458-1.093-1.44-4.666-6.545-4.666-11.62 0-5.005 2.457-7.614 3.64-8.868l.255-.273c.904-.986 1.914-1.093 2.306-1.093.39 0 .78.025 1.155.05.403.025.792.05 1.155.05.11 0 .222-.007.342-.014.075-.005.153-.01.234-.01.13 0 .474 0 1.006 1.266.374.888.938 2.25 1.518 3.647 1.26 3.037 2.037 4.908 2.23 5.297.252.51.23.75.1 1.01l-.162.327c-.294.596-.456.924-.87 1.4-.207.242-.418.496-.628.75-.394.476-.8.967-1.122 1.288-.57.568-1.914 1.904-.713 3.927.68 1.166 3.203 5.26 6.94 8.573 3.98 3.516 7.507 5.035 9.2 5.767.318.137.574.247.763.34.708.35 1.295.51 1.854.51.847 0 1.575-.363 2.228-1.11.557-.627 3.024-3.477 3.914-4.82.237-.355.346-.355.393-.355.224 0 .653.156.884.24 1 .353 6.805 3.172 8.1 3.823l.69.335c.41.198.907.438 1.095.584.1.57.024 2.443-.774 4.67-.777 2.164-5.11 4.69-7.092 4.868-.468.043-.85.134-1.186.215-.435.102-.81.193-1.39.193z"/></svg>