<!DOCTYPE svg PUBLIC "-//W3C//DTD SVG 1.1//EN" "http://www.w3.org/Graphics/SVG/1.1/DTD/svg11.dtd" [
	<!ENTITY ns_flows "http://ns.adobe.com/Flows/1.0/">
]><svg xmlns="http://www.w3.org/2000/svg" width="80" height="80" viewBox="-3.123 -1.842 80 80"><path fill="#231F20" d="M64.11 3.862C59.47.464 53.82-.748 48.203.45c-4.393.936-8.572 4.558-11.627 7.205-1.11.963-2.632 2.282-3.128 2.453-.52.047-2.437-.537-3.842-.964-3.86-1.175-9.145-2.783-13.568-1.84-5.62 1.196-10.285 4.606-13.14 9.6C.184 21.654-.66 27.328.523 32.877c1.69 7.928 6.938 18.594 14.04 28.533 3.16 4.423 6.315 8.153 9.125 10.79 3.345 3.136 5.922 4.46 7.88 4.04.87-.185 2.383-.893 2.75-3.553.358-2.585.55-5.507.756-8.604.543-8.2 1.22-18.407 5.61-19.342l.276-.06c1.95-.415 4.055.884 6.43 3.974 2.353 3.06 4.554 7.326 6.687 11.458 1.408 2.73 2.74 5.31 4.083 7.488 1.397 2.27 3.05 2.3 3.91 2.118 1.95-.416 3.758-2.7 5.526-6.986 1.48-3.583 2.835-8.318 3.922-13.695 2.44-12.065 2.916-23.863 1.276-31.56C71.61 11.93 68.527 7.093 64.11 3.862m-14.665 9.073c-.045.006-4.63.757-8.994.543-1.968-.097-4.38-.62-4.444-.912-.06-.286 2.035-2.19 2.544-2.63 2.806-2.432 6.646-5.76 10.28-6.536C59.533 1.12 67.92 9.087 69.84 18.107c1.535 7.204 1.044 18.827-1.282 30.332-1.035 5.115-2.368 9.782-3.754 13.143-1.6 3.876-2.892 5.18-3.366 5.186-.29.004-.367-.188-.714-.75-1.284-2.084-2.59-4.614-3.974-7.294-2.19-4.244-4.455-8.633-6.974-11.91-3.155-4.103-6.246-5.767-9.45-5.084l-.276.06c-3.086.657-5.174 3.406-6.383 8.4-.966 3.988-1.292 8.92-1.608 13.692-.2 3.04-.392 5.912-.733 8.393-.077.548-.063.892-.39 1.016-.26.097-1.414.25-5.19-3.292-2.63-2.466-5.73-6.14-8.734-10.34-6.77-9.478-11.96-19.98-13.543-27.41C1.55 23.228 5.96 12.535 16.665 10.253c2.782-.593 6.71-.104 10.504 1.308.556.208 1.36.59 2.136.962.31.148.616.294.9.426.908.42 2.13.962 3.53 1.43.596.2 1.338.448 2.103.596 2.92.566 5.883.538 8.806-.085 2.98-.636 4.868-1.593 4.887-1.603 0 0 .423-.214.385-.328-.042-.114-.473-.025-.473-.025z"/></svg>